#!OML:ASF I:\Actors\actors\Patient Classification 1\Patient 1\Session 1\Subject1.ASF
:FULLY-SPECIFIED
:DEGREES
203
root 0.084619 17.5333 8.94027 11.5085 -0.768333 -8.30919
lowerback -2.35223 -1.26056 6.73234
upperback -11.0696 -1.19925 3.36344
thorax -10.5994 -1.02348 -0.0473754
lowerneck -7.2284 -1.46291 -1.22455
upperneck 20.9448 -2.88622 4.78185
head 7.71552 -1.05313 1.5237
rclavicle 1.67476e-014 -1.61016e-014
rhumerus -32.8697 7.18278 -94.8487
rradius 115.352
rwrist 0.443648
rhand 9.82856 -36.3002
rfingers 7.12502
rthumb 34.9637 -62.8647
lclavicle 1.67476e-014 -1.61016e-014
lhumerus -27.1607 -28.6838 106.028
lradius 103.349
lwrist 19.361
lhand -12.5918 -10.5748
lfingers 7.12502
lthumb 13.4867 18.9685
rfemur -4.09701 26.1076 24.0774
rtibia 2.27624
rfoot -12.7338 -27.284
rtoes 3.06099
lfemur 5.31518 -47.8784 -12.5682
ltibia -4.92098
lfoot -33.2033 57.0585
ltoes 16.8723
204
root 0.0817257 17.5338 8.95078 11.7297 -2.26688 -8.29998
lowerback -3.01882 -1.38216 6.5807
upperback -10.5517 -1.46711 3.43846
thorax -9.61063 -1.11676 0.086732
lowerneck -7.94745 -0.966617 -0.339561
upperneck 20.7335 -2.25293 4.40464
head 7.74328 -0.711169 1.3016
rclavicle -8.84592e-015 -2.78299e-014
rhumerus -31.5702 10.2148 -96.5671
rradius 118.181
rwrist 1.22226
rhand 11.808 -35.7655
rfingers 7.12502
rthumb 36.8391 -61.8714
lclavicle -8.84592e-015 -2.78299e-014
lhumerus -26.7587 -30.0371 106.41
lradius 105.047
lwrist 17.983
lhand -11.4494 -12.1978
lfingers 7.12502
lthumb 14.5875 17.2692
rfemur -4.34843 26.5061 23.9567
rtibia 2.17893
rfoot -12.0517 -27.1091
rtoes 1.41691
lfemur 5.07173 -45.6317 -12.4413
ltibia -4.78963
lfoot -33.2344 55.795
ltoes 17.8044
205
root 0.0729386 17.5332 8.9608 11.8964 -3.82452 -8.29034
lowerback -2.61979 -1.16571 7.08815
upperback -10.7838 -1.15454 2.91732
thorax -10.1316 -1.05234 -0.744626
lowerneck -7.90036 -0.771295 0.557637
upperneck 20.8336 -2.13175 4.3884
head 7.75904 -0.586361 1.15653
rclavicle 2.79541e-015 7.55382e-015
rhumerus -31.926 11.88 -98.5165
rradius 120.787
rwrist 1.93411
rhand 13.604 -35.0701
rfingers 7.12502
rthumb 38.536 -60.7215
lclavicle 2.79541e-015 7.55382e-015
lhumerus -28.3431 -31.4673 106.861
lradius 106.556
lwrist 16.77
lhand -10.2804 -13.9018
lfingers 7.12502
lthumb 15.7137 15.4802
rfemur -4.50417 26.9847 23.895
rtibia 2.06109
rfoot -11.4604 -26.9189
rtoes 0.00840375
lfemur 4.89424 -43.127 -12.3227
ltibia -4.68758
lfoot -33.2072 54.3799
ltoes 18.7873
206
root 0.0574236 17.535 8.96983 12.0475 -5.34534 -8.32663
lowerback -3.10301 -0.936425 7.1625
upperback -10.3542 -0.936478 2.72547
thorax -9.34342 -0.93818 -1.03365
lowerneck -8.1958 -0.471034 1.209
upperneck 20.3097 -1.76234 4.19812
head 7.62702 -0.383813 1.01375
rclavicle 2.90909e-014 -4.39811e-015
rhumerus -31.235 14.0794 -99.6946
rradius 122.816
rwrist 2.49397
rhand 14.4889 -34.5815
rfingers 7.12502
rthumb 39.3703 -59.9944
lclavicle 2.90909e-014 -4.39811e-015
lhumerus -28.5909 -32.1371 106.253
lradius 107.811
lwrist 16.0682
lhand -7.19401 -16.2269
lfingers 7.12502
lthumb 18.6842 12.8958
rfemur -4.65619 27.4596 23.8975
rtibia 1.98463
rfoot -11.0217 -26.6411
rtoes -1.01267
lfemur 4.62495 -40.2471 -12.0134
ltibia -4.59019
lfoot -32.0934 52.9135
ltoes 18.579
207
root 0.0377973 17.5425 8.97634 12.2198 -6.64914 -8.36976
lowerback -3.1863 -0.573659 7.27772
upperback -10.2721 -0.477988 2.50891
thorax -9.17164 -0.72841 -1.35661
lowerneck -8.08353 -0.239141 1.63182
upperneck 19.9466 -1.46317 4.07973
head 7.48023 -0.228227 0.928613
rclavicle 1.95617e-014 -1.85118e-014
rhumerus -31.1978 15.8272 -100.566
rradius 124.512
rwrist 3.41502
rhand 14.764 -34.9628
rfingers 7.12502
rthumb 39.6295 -60.2995
lclavicle 1.95617e-014 -1.85118e-014
lhumerus -29.5471 -32.2132 105.868
lradius 109.185
lwrist 16.1473
lhand -7.79502 -17.1179
lfingers 7.12502
lthumb 18.1061 12.0594
rfemur -4.90343 27.5879 23.8768
rtibia 2.01065
rfoot -10.7193 -26.0904
rtoes -1.89723
lfemur 4.03874 -36.8762 -11.4347
ltibia -4.33563
lfoot -29.6588 51.1878
ltoes 17.0042
208
root 0.0167603 17.5529 8.97978 12.3786 -7.54335 -8.56089
lowerback -3.27259 -0.187962 7.42533
upperback -10.1975 0.0237988 2.43621
thorax -8.99879 -0.490869 -1.54331
lowerneck -7.97493 0.00524344 1.82163
upperneck 19.6221 -1.12894 4.05887
head 7.3494 -0.0628962 0.917299
rclavicle -3.0265e-014 -3.47873e-016
rhumerus -31.1962 17.2741 -101.058
rradius 125.75
rwrist 5.08733
rhand 15.4364 -35.3449
rfingers 7.12502
rthumb 40.2623 -60.4913
lclavicle -3.0265e-014 -3.47873e-016
lhumerus -30.3204 -31.8191 105.43
lradius 110.849
lwrist 16.7971
lhand -7.0233 -17.5721
lfingers 7.12502
lthumb 18.8484 11.5347
rfemur -5.15429 27.3097 24.0455
rtibia 2.11159
rfoot -10.5498 -25.2997
rtoes -2.68465
lfemur 3.23977 -33.3632 -10.5362
ltibia -3.85835
lfoot -26.7449 49.1663
ltoes 14.6138
209
root -0.00613163 17.5767 8.99231 11.8261 -7.18711 -8.59781
lowerback -2.99912 -0.0462811 7.64339
upperback -9.93891 0.223935 2.26311
thorax -8.85535 -0.406363 -1.86154
lowerneck -7.88878 0.20303 2.12692
upperneck 19.3164 -0.866765 3.98476
head 7.23077 0.0728925 0.862779
rclavicle -4.96962e-017 9.93923e-016
rhumerus -31.2078 18.2575 -101.474
rradius 126.588
rwrist 6.72117
rhand 16.4062 -34.8945
rfingers 7.12502
rthumb 41.1736 -59.7555
lclavicle -4.96962e-017 9.93923e-016
lhumerus -30.9737 -31.3783 104.981
lradius 112.722
lwrist 16.6337
lhand -6.38725 -18.0517
lfingers 7.12502
lthumb 19.4601 10.9945
rfemur -4.13106 27.2398 24.6612
rtibia 1.78908
rfoot -10.8394 -25.7561
rtoes -2.18099
lfemur 2.81314 -30.2386 -9.87256
ltibia -3.11057
lfoot -23.4342 46.3971
ltoes 11.4002
210
root -0.0271452 17.592 8.99417 11.3844 -6.50645 -8.6127
lowerback -2.19199 0.149182 7.58712
upperback -10.0779 0.583666 2.27602
thorax -9.45543 -0.24279 -1.83163
lowerneck -7.57465 0.465596 2.64364
upperneck 19.3167 -0.456375 3.43209
head 7.16957 0.258103 0.631277
rclavicle 3.91854e-014 -6.01324e-014
rhumerus -31.6929 19.1551 -101.879
rradius 127.21
rwrist 6.79586
rhand 16.5639 -34.1502
rfingers 7.12502
rthumb 41.3217 -58.9635
lclavicle 3.91854e-014 -6.01324e-014
lhumerus -31.7927 -30.5946 105.059
lradius 114.34
lwrist 14.815
lhand -6.05442 -19.1625
lfingers 7.12502
lthumb 19.78 9.85101
rfemur -3.4739 26.6928 25.1038
rtibia 1.69203
rfoot -11.2129 -25.941
rtoes -1.75829
lfemur 2.25172 -28.0621 -9.2305
ltibia -2.37597
lfoot -21.118 44.0953
ltoes 8.88415
211
root -0.0460455 17.6011 8.99034 10.9668 -5.24538 -8.64612
lowerback -1.56873 0.423869 7.86487
upperback -10.2287 1.03503 2.1175
thorax -9.95833 -0.0688956 -2.18363
lowerneck -7.06288 0.710932 2.90643
upperneck 19.0474 -0.0876209 3.29389
head 6.9901 0.435478 0.570034
rclavicle 1.46107e-014 -1.99779e-014
rhumerus -31.9198 19.8399 -102.474
rradius 127.619
rwrist 5.72152
rhand 18.9017 -34.8208
rfingers 7.12502
rthumb 43.5106 -58.8838
lclavicle 1.46107e-014 -1.99779e-014
lhumerus -32.128 -30.197 104.863
lradius 115.521
lwrist 12.6069
lhand -6.37583 -20.5658
lfingers 7.12502
lthumb 19.471 8.47925
rfemur -2.88385 25.9231 25.5705
rtibia 1.62354
rfoot -11.5746 -26.4228
rtoes -1.52946
lfemur 1.57658 -26.7987 -8.5637
ltibia -1.69959
lfoot -18.906 42.1822
ltoes 5.7773
212
root -0.065138 17.6047 8.98715 10.5243 -3.27827 -8.64574
lowerback -1.13996 0.740651 8.17112
upperback -10.4167 1.53131 1.93441
thorax -10.3795 0.12315 -2.58809
lowerneck -6.56418 1.04399 3.3313
upperneck 19.144 0.360777 3.20708
head 6.93514 0.676909 0.505884
rclavicle 1.2101e-014 -3.68746e-014
rhumerus -32.0101 20.5369 -103.015
rradius 127.855
rwrist 4.85129
rhand 19.6192 -35.2156
rfingers 7.12502
rthumb 44.1802 -59.0309
lclavicle 1.2101e-014 -3.68746e-014
lhumerus -32.4614 -30.1955 104.893
lradius 116.702
lwrist 11.2666
lhand -6.907 -21.7685
lfingers 7.12502
lthumb 18.9603 7.32738
rfemur -2.14475 25.2983 26.104
rtibia 1.44997
rfoot -12.048 -27.6371
rtoes -1.00292
lfemur 0.786842 -26.3248 -7.91263
ltibia -1.07062
lfoot -16.8434 40.3556
ltoes 2.42358
213
root -0.0873263 17.6018 8.9866 10.093 -0.681746 -8.5491
lowerback -1.0938 1.05731 8.3009
upperback -10.501 1.97804 1.78767
thorax -10.4513 0.323683 -2.85205
lowerneck -6.2906 1.37553 3.83176
upperneck 19.3926 0.81549 2.97171
head 6.97315 0.921626 0.383424
rclavicle -5.09386e-015 4.96962e-015
rhumerus -31.6527 21.5158 -103.409
rradius 127.978
rwrist 4.24662
rhand 19.2436 -34.9111
rfingers 7.12502
rthumb 43.8298 -58.8572
lclavicle -5.09386e-015 4.96962e-015
lhumerus -32.5061 -30.4006 104.886
lradius 118.034
lwrist 10.6103
lhand -6.89425 -22.362
lfingers 7.12502
lthumb 18.9725 6.73268
rfemur -1.29731 25.0148 26.6315
rtibia 1.19252
rfoot -12.9341 -29.5829
rtoes 0.865479
lfemur -0.0754305 -26.6036 -7.32998
ltibia -0.665277
lfoot -14.8915 38.6159
ltoes -0.710517
